<svg width="17" height="15" viewBox="0 0 17 15" fill="none" xmlns="http://www.w3.org/2000/svg">
<path d="M8.24963 5.00357C6.72934 5.00357 5.50368 6.12857 5.50368 7.5C5.50368 8.87143 6.74113 9.99643 8.24963 9.99643C9.75813 9.99643 10.9956 8.87143 10.9956 7.5C10.9956 6.12857 9.75813 5.00357 8.24963 5.00357ZM16.4993 7.5C16.4993 6.46071 16.4993 5.44286 16.4403 4.40357C16.3814 3.20357 16.075 2.13214 15.1086 1.26429C14.1422 0.385714 12.9755 0.107143 11.6556 0.0535714C10.5124 -5.1888e-08 9.39279 0 8.24963 0C7.10647 0 5.98688 -5.1888e-08 4.84371 0.0535714C3.52377 0.107143 2.34525 0.385714 1.39065 1.26429C0.424267 2.14286 0.117852 3.20357 0.0589259 4.40357C-5.70742e-08 5.44286 0 6.46071 0 7.5C0 8.53929 -5.70742e-08 9.55714 0.0589259 10.5964C0.117852 11.7964 0.424267 12.8679 1.39065 13.7357C2.35704 14.6143 3.52377 14.8929 4.84371 14.9464C5.98688 15 7.10647 15 8.24963 15C9.39279 15 10.5124 15 11.6556 14.9464C12.9755 14.8929 14.154 14.6143 15.1086 13.7357C16.075 12.8571 16.3814 11.7964 16.4403 10.5964C16.511 9.56786 16.4993 8.53929 16.4993 7.5ZM8.24963 11.3464C5.90438 11.3464 4.01875 9.63214 4.01875 7.5C4.01875 5.36786 5.90438 3.65357 8.24963 3.65357C10.5949 3.65357 12.4805 5.36786 12.4805 7.5C12.4805 9.63214 10.5949 11.3464 8.24963 11.3464ZM12.6573 4.39286C12.1152 4.39286 11.6673 3.99643 11.6673 3.49286C11.6673 2.98929 12.1034 2.59286 12.6573 2.59286C13.2112 2.59286 13.6472 2.98929 13.6472 3.49286C13.6502 3.61022 13.6267 3.72688 13.578 3.83562C13.5294 3.94436 13.4566 4.04286 13.3644 4.125C13.274 4.20886 13.1657 4.27496 13.0461 4.3192C12.9265 4.36343 12.7982 4.38485 12.6691 4.38214L12.6573 4.39286Z" fill="#178DC3"/>
</svg>
