<svg width="14" height="15" viewBox="0 0 14 15" fill="none" xmlns="http://www.w3.org/2000/svg">
<path d="M10.5782 2.35C9.9971 1.69961 9.67678 0.864499 9.67687 0H7.04932V10.3333C7.02947 10.8927 6.78871 11.4226 6.37781 11.8112C5.96692 12.1999 5.41803 12.417 4.84694 12.4167C3.63946 12.4167 2.63605 11.45 2.63605 10.25C2.63605 8.81667 4.04762 7.74167 5.5017 8.18333V5.55C2.56803 5.16667 0 7.4 0 10.25C0 13.025 2.34694 15 4.83844 15C7.5085 15 9.67687 12.875 9.67687 10.25V5.00833C10.7423 5.75821 12.0216 6.16054 13.3333 6.15833V3.58333C13.3333 3.58333 11.7347 3.65833 10.5782 2.35Z" fill="#178DC3"/>
</svg>
