<svg width="18" height="18" viewBox="0 0 18 18" fill="none" xmlns="http://www.w3.org/2000/svg">
<path d="M17.5927 3.29863L14.2941 0C13.565 0.728918 12.5762 1.1384 11.5452 1.1384C10.5142 1.1384 9.52547 0.728918 8.79636 0L6.59727 2.19909L9.8959 5.49772L5.49772 9.8959L2.19909 6.59727L0 8.79636C0.728918 9.52547 1.1384 10.5142 1.1384 11.5452C1.1384 12.5762 0.728918 13.565 0 14.2941L3.29863 17.5927C4.02774 16.8638 5.01651 16.4543 6.0475 16.4543C7.07848 16.4543 8.06725 16.8638 8.79636 17.5927L10.9954 15.3936L7.69681 12.095L12.095 7.69681L15.3936 10.9954L17.5927 8.79636C16.8638 8.06725 16.4543 7.07848 16.4543 6.0475C16.4543 5.01651 16.8638 4.02774 17.5927 3.29863Z" fill="white"/>
</svg>
